<?xml version="1.0" encoding="UTF-8"?>
<svg version="1.1" xmlns="http://www.w3.org/2000/svg" width="24" height="24">
<path d="M0 0 C2.9425305 2.01331034 3.82340722 3.29362888 4.6875 6.75 C3.56399574 12.06111103 -0.25474224 15.25474224 -4 19 C-6.28684338 19.2819396 -8.57363273 19.44777005 -10.87109375 19.62109375 C-13.20927403 19.82776636 -13.20927403 19.82776636 -15 22 C-15.99 22 -16.98 22 -18 22 C-17.125 18.125 -17.125 18.125 -16 17 C-15.94690363 15.62539392 -15.90763291 14.25024405 -15.875 12.875 C-15.4007489 7.84311545 -13.35757148 5.61893712 -9.69140625 2.3125 C-6.43350696 -0.21556966 -4.09326724 -0.40932672 0 0 Z M-6.10546875 3.2578125 C-6.79253906 3.87398438 -7.47960937 4.49015625 -8.1875 5.125 C-8.88230469 5.72570312 -9.57710937 6.32640625 -10.29296875 6.9453125 C-12.25830804 9.31091539 -12.64992612 10.97995963 -13 14 C-12.54109375 13.59007812 -12.0821875 13.18015625 -11.609375 12.7578125 C-10.99578125 12.21898437 -10.3821875 11.68015625 -9.75 11.125 C-8.84507813 10.32449219 -8.84507813 10.32449219 -7.921875 9.5078125 C-6.02581254 8.0202513 -4.18709995 6.99677564 -2 6 C-2.474375 6.78375 -2.94875 7.5675 -3.4375 8.375 C-4.33898023 9.88948678 -5.21179485 11.4235897 -6 13 C-3.59122743 12.88658466 -3.59122743 12.88658466 -1 12 C1.06196218 9.7859011 1.06196218 9.7859011 2 7 C1.59130748 4.68250878 1.59130748 4.68250878 0 3 C-2.68758969 1.81700112 -3.54344366 1.72725206 -6.10546875 3.2578125 Z M-9 15 C-9.33 15.66 -9.66 16.32 -10 17 C-8.35 16.67 -6.7 16.34 -5 16 C-6.32 15.67 -7.64 15.34 -9 15 Z " fill="#000000" transform="translate(19,1)"/>
</svg>
